<svg width="16" height="12" viewBox="0 0 16 12" fill="none" xmlns="http://www.w3.org/2000/svg"><g clip-path="url(#clip0_4568_13595)"><path d="M0 0H15.9688V12H0V0Z" fill="white"/><path d="M0 0H16V4H0V0Z" fill="#6DA544"/><path d="M0 7.99679H16V11.9968H0V7.99679ZM8.69552 4.73013C8.69864 4.8003 8.96686 5.64942 8.83275 6.11258C8.6269 6.82486 8.33996 6.87749 8.2152 6.97223V4.70206L8 4.55469L7.7848 4.70206V6.97223C7.66004 6.87749 7.39805 6.88802 7.16725 6.11258C7.03314 5.66697 7.34503 4.80381 7.34815 4.73714C7.34815 4.73714 7.05185 5.02135 6.85536 5.57925C6.67135 6.09855 6.91462 7.3196 7.77544 7.50206C7.84717 7.51609 7.92203 7.69855 8 7.69855C8.0655 7.69855 8.12788 7.51609 8.18713 7.50556C9.0729 7.34416 9.27875 6.04241 9.11969 5.55469C8.95127 5.04241 8.69552 4.73013 8.69552 4.73013Z" fill="#D80027"/><g opacity="0.5"><path opacity="0.5" d="M1.39103 3.46973H2.08655V4.32587H1.39103V3.46973ZM0 3.46973H0.695517V4.32587H0V3.46973ZM2.78207 3.46973H3.47758V4.32587H2.78207V3.46973ZM4.1731 3.46973H4.86862V4.32587H4.1731V3.46973ZM5.56413 3.46973H6.25965V4.32587H5.56413V3.46973ZM6.95517 3.46973H7.65068V4.32587H6.95517V3.46973ZM8.34932 3.46973H9.04483V4.32587H8.34932V3.46973ZM9.74035 3.46973H10.4359V4.32587H9.74035V3.46973ZM11.1314 3.46973H11.8269V4.32587H11.1314V3.46973ZM12.5224 3.46973H13.2179V4.32587H12.5224V3.46973ZM13.9135 3.46973H14.609V4.32587H13.9135V3.46973ZM15.3045 3.46973H16V4.32587H15.3045V3.46973ZM1.39103 7.61008H2.08655V8.50481H1.39103V7.61008ZM0 7.61008H0.695517V8.50481H0V7.61008ZM2.78207 7.61008H3.47758V8.50481H2.78207V7.61008ZM4.1731 7.61008H4.86862V8.50481H4.1731V7.61008ZM5.56413 7.61008H6.25965V8.50481H5.56413V7.61008ZM6.95517 7.61008H7.65068V8.50481H6.95517V7.61008ZM8.34932 7.61008H9.04483V8.50481H8.34932V7.61008ZM9.74035 7.61008H10.4359V8.50481H9.74035V7.61008ZM11.1314 7.61008H11.8269V8.50481H11.1314V7.61008ZM12.5224 7.61008H13.2179V8.50481H12.5224V7.61008ZM13.9135 7.61008H14.609V8.50481H13.9135V7.61008ZM15.3045 7.61008H16V8.50481H15.3045V7.61008Z" fill="white"/></g></g><defs><clipPath id="clip0_4568_13595"><rect width="16" height="12" fill="white"/></clipPath></defs></svg>
